<svg width="50" height="50" viewBox="0 0 50 50" xmlns="http://www.w3.org/2000/svg">
<path clip-rule="evenodd" d="M39.6 50H10.4C4.7 50 0 45.3 0 39.6V10.4C0 4.7 4.7 0 10.4 0H39.6C45.3 0 50 4.7 50 10.4V39.6C50 45.3 45.3 50 39.6 50ZM33.9 39.3C34.3 39.6 34.9 39.7 35.4 39.5C35.9 39.3 36.3 38.9 36.4 38.3C37.6 32.6 40.5 18.3 41.6 13.1C41.7 12.7 41.5 12.3 41.2 12C40.9 11.7 40.5 11.7 40.1 11.8C34.4 14 16.4 20.8 9.1 23.5C8.6 23.7 8.3 24.1 8.3 24.6C8.3 25.1 8.6 25.5 9.1 25.7C12.4 26.7 16.7 28.1 16.7 28.1C16.7 28.1 18.7 34.2 19.8 37.3C19.9 37.7 20.2 38 20.6 38.1C21 38.2 21.4 38.1 21.7 37.8C23.4 36.2 26 33.7 26 33.7C26 33.7 31.1 37.3 33.9 39.3ZM18.6 27.2L20.9 34.9L21.4 30C21.4 30 30.4 21.9 35.5 17.2C35.7 17.1 35.7 16.8 35.5 16.7C35.4 16.5 35.1 16.5 35 16.6C29.1 20.5 18.6 27.2 18.6 27.2Z"/>
</svg>
