<svg width="132" height="127" viewBox="0 0 132 127" fill="none" xmlns="http://www.w3.org/2000/svg">
<path d="M130.642 111.323L130.642 110.882H130.201C127.96 110.882 125.817 110.88 124.081 110.505C122.354 110.132 121.141 109.415 120.608 108.066C119.995 106.513 115.742 96.3143 111.647 86.5127C109.599 81.6099 107.588 76.8038 106.09 73.2234C105.341 71.4332 104.72 69.9495 104.286 68.9133L103.828 67.8188C108.721 67.0923 113.446 64.5977 116.991 61.3775C120.664 58.0409 123.142 53.8566 123.142 49.9652L123.142 16.1137L123.142 16.1071C123.074 11.612 122.701 7.90682 120.951 5.33517C119.166 2.71304 116.035 1.37187 110.758 1.37187H110.697H110.636H110.574H110.511H110.449H110.385H110.322H110.257H110.193H110.127H110.062H109.996H109.929H109.862H109.794H109.726H109.658H109.589H109.52H109.45H109.38H109.309H109.238H109.166H109.094H109.022H108.949H108.875H108.802H108.727H108.653H108.578H108.502H108.426H108.35H108.273H108.196H108.119H108.041H107.962H107.884H107.805H107.725H107.645H107.565H107.484H107.403H107.322H107.24H107.158H107.075H106.992H106.909H106.825H106.741H106.657H106.572H106.487H106.401H106.315H106.229H106.142H106.055H105.968H105.881H105.793H105.704H105.616H105.527H105.437H105.348H105.258H105.168H105.077H104.986H104.895H104.803H104.712H104.619H104.527H104.434H104.341H104.248H104.154H104.06H103.966H103.871H103.777H103.681H103.586H103.49H103.394H103.298H103.202H103.105H103.008H102.911H102.813H102.715H102.617H102.519H102.42H102.321H102.222H102.123H102.023H101.924H101.824H101.723H101.623H101.522H101.421H101.32H101.218H101.117H101.015H100.913H100.81H100.708H100.605H100.502H100.399H100.295H100.192H100.088H99.9842H99.8801H99.7757H99.6712H99.5665H99.4615H99.3565H99.2512H99.1458H99.0401H98.9343H98.8284H98.7223H98.616H98.5095H98.4029H98.2961H98.1892H98.0821H97.9749H97.8675H97.76H97.6523H97.5445H97.4366H97.3285H97.2203H97.1119H97.0035H96.8949H96.7861H96.6773H96.5683H96.4592H96.35H96.2407H96.1313H96.0218H95.9122H95.8024H95.6926H95.5826H95.4726H95.3625H95.2523H95.142H95.0316H94.9211H94.8106H94.7H94.5893H94.4785H94.3676H94.2567H94.1457H94.0347H93.9236H93.8124H93.7012H93.5899H93.4786H93.3672H93.2558H93.1443H93.0328H92.9212H92.8096H92.698H92.5863H92.4746H92.3629H92.2512H92.1394H92.0276H91.9158H91.804H91.6921H91.5803H91.4684H91.3566H91.2447H91.1328H91.021H90.9091H90.7972H90.6854H90.5735H90.4617H90.3499H90.2381H90.1263H90.0146H89.9028H89.7911H89.6795H89.5678H89.4562H89.3446H89.2331H89.1216H89.0102H88.8988H88.7874H88.6761H88.5649H88.4537H88.3426H88.2315H88.1205H88.0095H87.8987H87.7879H87.6771H87.5665H87.4559H87.3454H87.235H87.1246H87.0144H86.9042H86.7942H86.6842H86.5743H86.4646H86.3549H86.2453H86.1359H86.0265H85.9173H85.8082H85.6991H85.5903H85.4815H85.3728H85.2643H85.1559H85.0476H84.9395H84.8315H84.7237H84.6159H84.5084H84.4009H84.2936H84.1865H84.0795H83.9727H83.866H83.7595H83.6532H83.547H83.4409H83.3351H83.2294H83.1239H83.0186H82.9134H82.8084H82.7037H82.5991H82.4946H82.3904H82.2864H82.1825H82.0789H81.9755H81.8722H81.7692H81.6664H81.5637H81.4613H81.3592H81.2572H81.1554H81.0539H80.9526H80.8515H80.7507H80.65H80.5496H80.4495H80.3496H80.2499H80.1505H80.0513H79.9523H79.8537H79.7552H79.6571H79.5591H79.4615H79.3641H79.2669H79.1701H79.0735H78.9771H78.8811H78.7853H78.6898H78.5946H78.4997H78.405H78.3107H78.2166H78.1229H78.0294H77.9362H77.8433H77.7508H77.6585H77.5665H77.4749H77.3836H77.2925H77.2018H77.1115H77.0214H76.9317H76.8423H76.7532H76.6644H76.576H76.488H76.4002H76.3128H76.2258H76.1391H76.0527H75.9667H75.8811H75.7958H75.7108H75.6263H75.5421H75.4582H75.3747H75.2916H75.2089H75.1265H75.0445H74.9629H74.8817H74.8009H74.7204H74.6404H74.5607H74.4814H74.4026H74.3241H74.246H74.1684H74.0911H74.0142H73.9378H73.8618H73.7862H73.711H73.6362H73.5618H73.4879H73.4144H73.3413H73.2687H73.1965H73.1247H73.0534H72.9825H72.9121H72.8421H72.7726H72.7035H72.6349H72.5667H72.499H72.4317H72.3649H72.2986H72.2328H72.1674H72.1025H72.038H71.9741H71.9106H71.8476H71.7851H71.7231H71.6616H71.6005H71.54H71.4799H71.4204H71.3614H71.3028H71.2448H71.1873H71.1303H71.0738H71.0178H70.9623H70.9074H70.853H70.7991H70.7458H70.6929H70.6407H70.5889H70.5377H70.487H70.4369H70.3873H70.3383H70.2898H70.2418H70.1945H70.1476H70.1014H70.0557H70.0105H69.966H69.922H69.8785H69.8357H69.7934H69.7517H69.7106H69.6701H69.6301H69.5908H69.552H69.5139H69.4763H69.4393H69.4029H69.3672H69.332H69.2974H69.2635H69.2302H69.1974H69.1653H69.1339H69.103H69.0728H69.0432H69.0142H68.9858H68.9581H68.931H68.9046H68.8788H68.8537H68.8292H68.8053H68.7821H68.7596H68.7377H68.7164H68.6959H68.6759H68.6567H68.6381H68.6202H68.603H68.5864H68.5705H68.5553H68.5408H68.527H68.5138H68.5014H68.4896H68.4786H68.4682H68.4585H68.4495H68.4413H68.4337H68.4268H68.4207H68.4153H68.4106H68.4066H68.4033H68.4007H68.3989H68.3978C68.3976 1.37187 68.3975 1.37187 68.3975 1.8125V1.37187H67.9568V1.8125V125.187V125.628H68.3975H80.2828H80.7235L80.7234 125.187L80.7138 67.8798H88.7148L88.7441 67.9427C88.841 68.1509 88.984 68.4583 89.1682 68.8549C89.5364 69.6481 90.0691 70.7979 90.7269 72.2243C92.0424 75.0771 93.8581 79.0361 95.8586 83.461C99.8609 92.3132 104.599 103.021 107.554 110.467L107.964 110.304L107.554 110.467C109.102 114.366 110.352 117.263 111.526 119.408C112.7 121.554 113.818 122.984 115.118 123.917C116.426 124.855 117.878 125.261 119.658 125.436C121.092 125.577 122.773 125.571 124.791 125.564C125.257 125.562 125.74 125.56 126.243 125.56C128.36 125.56 129.559 125.56 130.204 125.57L130.652 125.577L130.652 125.129L130.642 111.323ZM92.5563 54.7154H80.4712V13.9153L92.5563 13.9153L92.5577 13.9153C92.8225 13.9145 93.0838 13.9136 93.3416 13.9127C96.7921 13.9006 99.6285 13.8907 101.962 14.0747C104.473 14.2726 106.338 14.6918 107.723 15.5302C109.087 16.3556 110.03 17.6155 110.636 19.6013C111.248 21.6044 111.511 24.3263 111.511 28.0379V35.7222C111.511 42.9917 110.454 47.7243 107.634 50.6452C104.819 53.5609 100.136 54.7831 92.5602 54.7154H92.5563Z" fill="white" stroke="white" stroke-width="0.88125"/>
<path d="M63.1927 111.323L63.1924 110.882H62.7521C60.5109 110.882 58.3677 110.88 56.632 110.505C54.9044 110.132 53.6916 109.415 53.1588 108.066C52.5455 106.513 48.2931 96.3143 44.1979 86.5127C42.1494 81.6099 40.1392 76.8038 38.6411 73.2234C37.892 71.4332 37.271 69.9495 36.8372 68.9133L36.3791 67.8188C41.272 67.0923 45.9966 64.5977 49.5415 61.3775C53.2146 58.0409 55.6928 53.8566 55.6928 49.9652L55.6929 16.1137L55.6928 16.1071C55.625 11.612 55.2514 7.90682 53.5013 5.33517C51.7169 2.71304 48.5861 1.37187 43.3086 1.37187H43.2478H43.1864H43.1246H43.0623H42.9995H42.9362H42.8724H42.8081H42.7434H42.6782H42.6125H42.5464H42.4798H42.4127H42.3451H42.2771H42.2087H42.1398H42.0704H42.0006H41.9303H41.8596H41.7884H41.7168H41.6448H41.5723H41.4994H41.4261H41.3523H41.2781H41.2035H41.1285H41.053H40.9771H40.9008H40.8241H40.747H40.6695H40.5916H40.5133H40.4345H40.3554H40.2759H40.196H40.1157H40.035H39.9539H39.8725H39.7906H39.7084H39.6258H39.5429H39.4595H39.3758H39.2917H39.2073H39.1225H39.0373H38.9518H38.8659H38.7797H38.6931H38.6062H38.519H38.4314H38.3434H38.2551H38.1665H38.0775H37.9883H37.8987H37.8087H37.7185H37.6279H37.537H37.4458H37.3542H37.2624H37.1702H37.0778H36.985H36.892H36.7986H36.7049H36.611H36.5167H36.4222H36.3274H36.2323H36.1369H36.0412H35.9453H35.849H35.7526H35.6558H35.5588H35.4615H35.3639H35.2661H35.168H35.0696H34.9711H34.8722H34.7731H34.6738H34.5742H34.4744H34.3743H34.274H34.1735H34.0727H33.9717H33.8705H33.769H33.6674H33.5655H33.4634H33.361H33.2585H33.1558H33.0528H32.9496H32.8463H32.7427H32.6389H32.535H32.4308H32.3265H32.222H32.1172H32.0123H31.9072H31.802H31.6965H31.5909H31.4851H31.3792H31.273H31.1668H31.0603H30.9537H30.8469H30.74H30.6329H30.5257H30.4183H30.3108H30.2031H30.0953H29.9874H29.8793H29.7711H29.6627H29.5542H29.4456H29.3369H29.2281H29.1191H29.01H28.9008H28.7915H28.6821H28.5726H28.4629H28.3532H28.2434H28.1334H28.0234H27.9133H27.8031H27.6928H27.5824H27.4719H27.3614H27.2507H27.14H27.0293H26.9184H26.8075H26.6965H26.5855H26.4744H26.3632H26.252H26.1407H26.0294H25.918H25.8065H25.6951H25.5836H25.472H25.3604H25.2488H25.1371H25.0254H24.9137H24.802H24.6902H24.5784H24.4666H24.3548H24.2429H24.1311H24.0192H23.9074H23.7955H23.6836H23.5717H23.4599H23.348H23.2362H23.1243H23.0125H22.9007H22.7889H22.6771H22.5653H22.4536H22.3419H22.2302H22.1186H22.007H21.8954H21.7839H21.6724H21.561H21.4496H21.3382H21.2269H21.1157H21.0045H20.8933H20.7823H20.6713H20.5603H20.4494H20.3386H20.2279H20.1172H20.0067H19.8962H19.7858H19.6754H19.5652H19.455H19.345H19.235H19.1251H19.0154H18.9057H18.7961H18.6867H18.5773H18.4681H18.3589H18.2499H18.141H18.0323H17.9236H17.8151H17.7067H17.5984H17.4903H17.3823H17.2744H17.1667H17.0591H16.9517H16.8444H16.7373H16.6303H16.5235H16.4168H16.3103H16.2039H16.0978H15.9917H15.8859H15.7802H15.6747H15.5694H15.4642H15.3592H15.2544H15.1498H15.0454H14.9412H14.8372H14.7333H14.6297H14.5262H14.423H14.32H14.2171H14.1145H14.0121H13.9099H13.808H13.7062H13.6047H13.5034H13.4023H13.3014H13.2008H13.1004H13.0003H12.9004H12.8007H12.7013H12.6021H12.5031H12.4044H12.306H12.2078H12.1099H12.0122H11.9149H11.8177H11.7209H11.6243H11.5279H11.4319H11.3361H11.2406H11.1454H11.0505H10.9558H10.8615H10.7674H10.6736H10.5802H10.487H10.3941H10.3015H10.2093H10.1173H10.0257H9.93434H9.84333H9.75262H9.66224H9.57218H9.48245H9.39304H9.30397H9.21522H9.12681H9.03874H8.951H8.86361H8.77656H8.68985H8.6035H8.5175H8.43185H8.34655H8.26162H8.17704H8.09283H8.00899H7.92551H7.8424H7.75967H7.67731H7.59533H7.51373H7.43251H7.35167H7.27122H7.19117H7.1115H7.03223H6.95336H6.87488H6.79681H6.71914H6.64187H6.56502H6.48858H6.41255H6.33693H6.26174H6.18696H6.11261H6.03869H5.96519H5.89212H5.81949H5.74729H5.67552H5.6042H5.53332H5.46289H5.3929H5.32336H5.25428H5.18565H5.11747H5.04976H4.9825H4.91571H4.84939H4.78353H4.71815H4.65324H4.58881H4.52485H4.46138H4.39839H4.33588H4.27386H4.21233H4.1513H4.09076H4.03072H3.97118H3.91214H3.8536H3.79558H3.73806H3.68105H3.62456H3.56859H3.51313H3.4582H3.40379H3.3499H3.29655H3.24373H3.19144H3.13968H3.08847H3.03779H2.98766H2.93807H2.88904H2.84055H2.79262H2.74524H2.69841H2.65215H2.60645H2.56132H2.51675H2.47275H2.42933H2.38648H2.3442H2.30251H2.26139H2.22086H2.18092H2.14157H2.1028H2.06463H2.02706H1.99009H1.95371H1.91794H1.88277H1.84822H1.81427H1.78094H1.74822H1.71612H1.68463H1.65378H1.62354H1.59393H1.56496H1.53661H1.5089H1.48183H1.45539H1.4296H1.40445H1.37995H1.35609H1.33289H1.31034H1.28845H1.26721H1.24664H1.22673H1.20748H1.18891H1.171H1.15377H1.13721H1.12133H1.10613H1.09161H1.07777H1.06463H1.05217H1.04041H1.02934H1.01896H1.00929H1.00031H0.992046H0.984483H0.97763H0.971488H0.966059H0.961347H0.957353H0.954079H0.951529H0.949705H0.948608C0.948364 1.37187 0.948242 1.37187 0.948242 1.8125V1.37187H0.507617V1.8125V125.187V125.628H0.948242H12.8336H13.2743L13.2742 125.187L13.2646 67.8798H21.2655L21.2948 67.9427C21.3918 68.1509 21.5348 68.4583 21.7189 68.8549C22.0872 69.6481 22.6199 70.7979 23.2777 72.2243C24.5932 75.0771 26.4089 79.0361 28.4094 83.461C32.4117 92.3132 37.1498 103.021 40.1048 110.467L40.5144 110.304L40.1048 110.467C41.6528 114.366 42.9025 117.263 44.0768 119.408C45.2512 121.554 46.3688 122.984 47.6689 123.917C48.9771 124.855 50.4284 125.261 52.2091 125.436C53.6427 125.577 55.3239 125.571 57.3416 125.564C57.8073 125.562 58.2909 125.56 58.7936 125.56C60.911 125.56 62.1094 125.56 62.7552 125.57L63.2027 125.577L63.2024 125.129L63.1927 111.323ZM25.1071 54.7154H13.022V13.9153L25.1071 13.9153L25.1085 13.9153C25.3732 13.9145 25.6345 13.9136 25.8924 13.9127C29.3428 13.9006 32.1793 13.8907 34.5128 14.0747C37.0234 14.2726 38.889 14.6918 40.2741 15.5302C41.6379 16.3556 42.5804 17.6155 43.1868 19.6013C43.7985 21.6044 44.0614 24.3263 44.0614 28.0379V35.7222C44.0614 42.9917 43.0052 47.7243 40.1852 50.6452C37.3702 53.5609 32.6869 54.7831 25.111 54.7154H25.1071Z" fill="white" stroke="white" stroke-width="0.88125"/>
</svg>
