<?xml version="1.0" encoding="utf-8"?>
<!-- Generator: Adobe Illustrator 25.2.3, SVG Export Plug-In . SVG Version: 6.00 Build 0)  -->
<svg version="1.1" id="Ebene_1" xmlns="http://www.w3.org/2000/svg" xmlns:xlink="http://www.w3.org/1999/xlink" x="0px" y="0px"
	 viewBox="0 0 50 50" style="enable-background:new 0 0 50 50;" xml:space="preserve">

<path class="st0" d="M39.6,0H10.4C4.7,0,0,4.7,0,10.4v29.2C0,45.3,4.7,50,10.4,50h29.2C45.3,50,50,45.3,50,39.6V10.4
	C50,4.7,45.3,0,39.6,0z M33.3,14.6h-4c-1.3,0-2.2,0.5-2.2,1.9v2.3h6.2L32.8,25h-5.8v16.7h-6.2V25h-4.2v-6.2h4.2v-4
	c0-4.2,2.2-6.4,7.2-6.4h5.3V14.6z"/>
</svg>
