<?xml version="1.0" encoding="utf-8"?>
<!-- Generator: Adobe Illustrator 25.2.3, SVG Export Plug-In . SVG Version: 6.00 Build 0)  -->
<svg version="1.1" id="Ebene_1" xmlns="http://www.w3.org/2000/svg" xmlns:xlink="http://www.w3.org/1999/xlink" x="0px" y="0px"
	 viewBox="0 0 50 50" style="enable-background:new 0 0 50 50;" xml:space="preserve">
<path class="st0" d="M31.7,11.4c-1.8-0.1-2.3-0.1-6.7-0.1s-5,0-6.7,0.1c-4.5,0.2-6.6,2.3-6.8,6.8c-0.1,1.8-0.1,2.3-0.1,6.7
	s0,5,0.1,6.7c0.2,4.5,2.3,6.6,6.8,6.8c1.8,0.1,2.3,0.1,6.7,0.1c4.5,0,5,0,6.7-0.1c4.5-0.2,6.6-2.4,6.8-6.8c0.1-1.8,0.1-2.3,0.1-6.7
	s0-5-0.1-6.7C38.4,13.8,36.3,11.6,31.7,11.4z M25,33.6c-4.7,0-8.6-3.8-8.6-8.6s3.8-8.6,8.6-8.6s8.6,3.8,8.6,8.6S29.7,33.6,25,33.6z
	 M33.9,18.1c-1.1,0-2-0.9-2-2s0.9-2,2-2s2,0.9,2,2S35,18.1,33.9,18.1z M30.6,25c0,3.1-2.5,5.6-5.6,5.6s-5.6-2.5-5.6-5.6
	s2.5-5.6,5.6-5.6S30.6,21.9,30.6,25z M39.6,0H10.4C4.7,0,0,4.7,0,10.4v29.2C0,45.3,4.7,50,10.4,50h29.2C45.3,50,50,45.3,50,39.6
	V10.4C50,4.7,45.3,0,39.6,0z M41.6,31.9c-0.3,6.1-3.6,9.4-9.7,9.7c-1.8,0.1-2.3,0.1-6.9,0.1s-5.1,0-6.9-0.1
	c-6.1-0.3-9.4-3.6-9.7-9.7c-0.1-1.8-0.1-2.3-0.1-6.9c0-4.5,0-5.1,0.1-6.9c0.3-6.1,3.6-9.4,9.7-9.7c1.8-0.1,2.3-0.1,6.9-0.1
	s5.1,0,6.9,0.1c6.1,0.3,9.4,3.6,9.7,9.7c0.1,1.8,0.1,2.3,0.1,6.9C41.7,29.5,41.6,30.1,41.6,31.9z"/>
</svg>
