<?xml version="1.0" encoding="utf-8"?>
<!-- Generator: Adobe Illustrator 25.2.3, SVG Export Plug-In . SVG Version: 6.00 Build 0)  -->
<svg version="1.1" id="Ebene_1" xmlns="http://www.w3.org/2000/svg" xmlns:xlink="http://www.w3.org/1999/xlink" x="0px" y="0px"
	 viewBox="0 0 50 50" style="enable-background:new 0 0 50 50;" xml:space="preserve">
<path id="telegram-3" class="st0" d="M39.6,50H10.4C4.7,50,0,45.3,0,39.6V10.4C0,4.7,4.7,0,10.4,0h29.2C45.3,0,50,4.7,50,10.4v29.2
	C50,45.3,45.3,50,39.6,50z M33.9,39.3c0.4,0.3,1,0.4,1.5,0.2c0.5-0.2,0.9-0.6,1-1.2c1.2-5.7,4.1-20,5.2-25.2
	c0.1-0.4-0.1-0.8-0.4-1.1c-0.3-0.3-0.7-0.3-1.1-0.2C34.4,14,16.4,20.8,9.1,23.5c-0.5,0.2-0.8,0.6-0.8,1.1c0,0.5,0.3,0.9,0.8,1.1
	c3.3,1,7.6,2.4,7.6,2.4s2,6.1,3.1,9.2c0.1,0.4,0.4,0.7,0.8,0.8c0.4,0.1,0.8,0,1.1-0.3c1.7-1.6,4.3-4.1,4.3-4.1S31.1,37.3,33.9,39.3z
	 M18.6,27.2l2.3,7.7l0.5-4.9c0,0,9-8.1,14.1-12.8c0.2-0.1,0.2-0.4,0-0.5c-0.1-0.2-0.4-0.2-0.5-0.1C29.1,20.5,18.6,27.2,18.6,27.2z"
	/>
</svg>
